<svg xmlns="http://www.w3.org/2000/svg" width="700" height="700" viewBox="0 0 700 700" role="img" aria-label="Schengen Visa Support logo">
  <defs>
    <radialGradient id="sphereGrad" cx="35%" cy="30%" r="70%">
      <stop offset="0%" stop-color="#4f7dff" />
      <stop offset="55%" stop-color="#3158dc" />
      <stop offset="100%" stop-color="#244bc7" />
    </radialGradient>
    <linearGradient id="sphereShine" x1="0" y1="0" x2="0" y2="1">
      <stop offset="0%" stop-color="#ffffff" stop-opacity="0.32" />
      <stop offset="55%" stop-color="#ffffff" stop-opacity="0" />
      <stop offset="100%" stop-color="#ffffff" stop-opacity="0" />
    </linearGradient>
  </defs>

  <circle cx="350" cy="350" r="314" fill="url(#sphereGrad)"/>
  <circle cx="350" cy="350" r="314" fill="none" stroke="#ffffff" stroke-width="6" opacity="0.96"/>
  <ellipse cx="350" cy="278" rx="241" ry="168" fill="url(#sphereShine)"/>

  <path fill="#ffffff" d="M129.016 360.644Q121.932 360.644 116.320 358.344Q110.708 356.044 107.350 351.536Q103.992 347.028 103.808 340.680L103.808 340.680L120.552 340.680Q120.920 344.268 123.036 346.154Q125.152 348.040 128.556 348.040L128.556 348.040Q132.052 348.040 134.076 346.430Q136.100 344.820 136.100 341.968L136.100 341.968Q136.100 339.576 134.490 338.012Q132.880 336.448 130.534 335.436Q128.188 334.424 123.864 333.136L123.864 333.136Q117.608 331.204 113.652 329.272Q109.696 327.340 106.844 323.568Q103.992 319.796 103.992 313.724L103.992 313.724Q103.992 304.708 110.524 299.602Q117.056 294.496 127.544 294.496L127.544 294.496Q138.216 294.496 144.748 299.602Q151.280 304.708 151.740 313.816L151.740 313.816L134.720 313.816Q134.536 310.688 132.420 308.894Q130.304 307.100 126.992 307.100L126.992 307.100Q124.140 307.100 122.392 308.618Q120.644 310.136 120.644 312.988L120.644 312.988Q120.644 316.116 123.588 317.864Q126.532 319.612 132.788 321.636L132.788 321.636Q139.044 323.752 142.954 325.684Q146.864 327.616 149.716 331.296Q152.568 334.976 152.568 340.772L152.568 340.772Q152.568 346.292 149.762 350.800Q146.956 355.308 141.620 357.976Q136.284 360.644 129.016 360.644L129.016 360.644ZM159.560 327.616Q159.560 318.048 163.700 310.550Q167.840 303.052 175.246 298.866Q182.652 294.680 192.036 294.680L192.036 294.680Q203.536 294.680 211.724 300.752Q219.912 306.824 222.672 317.312L222.672 317.312L205.376 317.312Q203.444 313.264 199.902 311.148Q196.360 309.032 191.852 309.032L191.852 309.032Q184.584 309.032 180.076 314.092Q175.568 319.152 175.568 327.616L175.568 327.616Q175.568 336.080 180.076 341.140Q184.584 346.200 191.852 346.200L191.852 346.200Q196.360 346.200 199.902 344.084Q203.444 341.968 205.376 337.920L205.376 337.920L222.672 337.920Q219.912 348.408 211.724 354.434Q203.536 360.460 192.036 360.460L192.036 360.460Q182.652 360.460 175.246 356.274Q167.840 352.088 163.700 344.636Q159.560 337.184 159.560 327.616L159.560 327.616ZM272.536 295.416L288.268 295.416L288.268 360L272.536 360L272.536 333.412L248.064 333.412L248.064 360L232.332 360L232.332 295.416L248.064 295.416L248.064 320.716L272.536 320.716L272.536 295.416ZM339.144 308.020L315.316 308.020L315.316 321.084L336.384 321.084L336.384 333.228L315.316 333.228L315.316 347.396L339.144 347.396L339.144 360L299.584 360L299.584 295.416L339.144 295.416L339.144 308.020ZM407.132 295.416L407.132 360L391.400 360L365.088 320.164L365.088 360L349.356 360L349.356 295.416L365.088 295.416L391.400 335.436L391.400 295.416L407.132 295.416ZM478.800 315.840L461.412 315.840Q459.664 312.620 456.398 310.918Q453.132 309.216 448.716 309.216L448.716 309.216Q441.080 309.216 436.480 314.230Q431.880 319.244 431.880 327.616L431.880 327.616Q431.880 336.540 436.710 341.554Q441.540 346.568 450.004 346.568L450.004 346.568Q455.800 346.568 459.802 343.624Q463.804 340.680 465.644 335.160L465.644 335.160L445.680 335.160L445.680 323.568L479.904 323.568L479.904 338.196Q478.156 344.084 473.970 349.144Q469.784 354.204 463.344 357.332Q456.904 360.460 448.808 360.460L448.808 360.460Q439.240 360.460 431.742 356.274Q424.244 352.088 420.058 344.636Q415.872 337.184 415.872 327.616L415.872 327.616Q415.872 318.048 420.058 310.550Q424.244 303.052 431.696 298.866Q439.148 294.680 448.716 294.680L448.716 294.680Q460.308 294.680 468.266 300.292Q476.224 305.904 478.800 315.840L478.800 315.840ZM528.204 308.020L504.376 308.020L504.376 321.084L525.444 321.084L525.444 333.228L504.376 333.228L504.376 347.396L528.204 347.396L528.204 360L488.644 360L488.644 295.416L528.204 295.416L528.204 308.020ZM596.192 295.416L596.192 360L580.460 360L554.148 320.164L554.148 360L538.416 360L538.416 295.416L554.148 295.416L580.460 335.436L580.460 295.416L596.192 295.416Z"/>
  <path fill="#ffffff" d="M198.968 410.912L207.312 410.912L192.976 450L183.456 450L169.120 410.912L177.520 410.912L188.272 441.992L198.968 410.912ZM215.992 415.280Q213.920 415.280 212.548 413.964Q211.176 412.648 211.176 410.688L211.176 410.688Q211.176 408.728 212.548 407.412Q213.920 406.096 215.992 406.096L215.992 406.096Q218.064 406.096 219.436 407.412Q220.808 408.728 220.808 410.688L220.808 410.688Q220.808 412.648 219.436 413.964Q218.064 415.280 215.992 415.280L215.992 415.280ZM212.016 418.976L219.856 418.976L219.856 450L212.016 450L212.016 418.976ZM239.456 450.504Q235.648 450.504 232.624 449.132Q229.600 447.760 227.836 445.408Q226.072 443.056 225.904 440.200L225.904 440.200L233.800 440.200Q234.024 441.992 235.564 443.168Q237.104 444.344 239.400 444.344L239.400 444.344Q241.640 444.344 242.900 443.448Q244.160 442.552 244.160 441.152L244.160 441.152Q244.160 439.640 242.620 438.884Q241.080 438.128 237.720 437.232L237.720 437.232Q234.248 436.392 232.036 435.496Q229.824 434.600 228.228 432.752Q226.632 430.904 226.632 427.768L226.632 427.768Q226.632 425.192 228.116 423.064Q229.600 420.936 232.372 419.704Q235.144 418.472 238.896 418.472L238.896 418.472Q244.440 418.472 247.744 421.244Q251.048 424.016 251.384 428.720L251.384 428.720L243.880 428.720Q243.712 426.872 242.340 425.780Q240.968 424.688 238.672 424.688L238.672 424.688Q236.544 424.688 235.396 425.472Q234.248 426.256 234.248 427.656L234.248 427.656Q234.248 429.224 235.816 430.036Q237.384 430.848 240.688 431.688L240.688 431.688Q244.048 432.528 246.232 433.424Q248.416 434.320 250.012 436.196Q251.608 438.072 251.664 441.152L251.664 441.152Q251.664 443.840 250.180 445.968Q248.696 448.096 245.924 449.300Q243.152 450.504 239.456 450.504L239.456 450.504ZM256.088 434.376Q256.088 429.672 257.964 426.032Q259.840 422.392 263.060 420.432Q266.280 418.472 270.256 418.472L270.256 418.472Q273.728 418.472 276.332 419.872Q278.936 421.272 280.504 423.400L280.504 423.400L280.504 418.976L288.400 418.976L288.400 450L280.504 450L280.504 445.464Q278.992 447.648 276.332 449.076Q273.672 450.504 270.200 450.504L270.200 450.504Q266.280 450.504 263.060 448.488Q259.840 446.472 257.964 442.804Q256.088 439.136 256.088 434.376L256.088 434.376ZM280.504 434.488Q280.504 431.632 279.384 429.588Q278.264 427.544 276.360 426.452Q274.456 425.360 272.272 425.360L272.272 425.360Q270.088 425.360 268.240 426.424Q266.392 427.488 265.244 429.532Q264.096 431.576 264.096 434.376L264.096 434.376Q264.096 437.176 265.244 439.276Q266.392 441.376 268.268 442.496Q270.144 443.616 272.272 443.616L272.272 443.616Q274.456 443.616 276.360 442.524Q278.264 441.432 279.384 439.388Q280.504 437.344 280.504 434.488L280.504 434.488ZM322.896 450.392Q318.808 450.392 315.532 448.992Q312.256 447.592 310.352 444.960Q308.448 442.328 308.392 438.744L308.392 438.744L316.792 438.744Q316.960 441.152 318.500 442.552Q320.040 443.952 322.728 443.952L322.728 443.952Q325.472 443.952 327.040 442.636Q328.608 441.320 328.608 439.192L328.608 439.192Q328.608 437.456 327.544 436.336Q326.480 435.216 324.884 434.572Q323.288 433.928 320.488 433.144L320.488 433.144Q316.680 432.024 314.300 430.932Q311.920 429.840 310.212 427.628Q308.504 425.416 308.504 421.720L308.504 421.720Q308.504 418.248 310.240 415.672Q311.976 413.096 315.112 411.724Q318.248 410.352 322.280 410.352L322.280 410.352Q328.328 410.352 332.108 413.292Q335.888 416.232 336.280 421.496L336.280 421.496L327.656 421.496Q327.544 419.480 325.948 418.164Q324.352 416.848 321.720 416.848L321.720 416.848Q319.424 416.848 318.052 418.024Q316.680 419.200 316.680 421.440L316.680 421.440Q316.680 423.008 317.716 424.044Q318.752 425.080 320.292 425.724Q321.832 426.368 324.632 427.208L324.632 427.208Q328.440 428.328 330.848 429.448Q333.256 430.568 334.992 432.808Q336.728 435.048 336.728 438.688L336.728 438.688Q336.728 441.824 335.104 444.512Q333.480 447.200 330.344 448.796Q327.208 450.392 322.896 450.392L322.896 450.392ZM364.896 418.976L372.792 418.976L372.792 450L364.896 450L364.896 446.080Q363.384 448.096 360.948 449.244Q358.512 450.392 355.656 450.392L355.656 450.392Q352.016 450.392 349.216 448.852Q346.416 447.312 344.820 444.316Q343.224 441.320 343.224 437.176L343.224 437.176L343.224 418.976L351.064 418.976L351.064 436.056Q351.064 439.752 352.912 441.740Q354.760 443.728 357.952 443.728L357.952 443.728Q361.200 443.728 363.048 441.740Q364.896 439.752 364.896 436.056L364.896 436.056L364.896 418.976ZM388.360 423.456Q389.872 421.328 392.532 419.900Q395.192 418.472 398.608 418.472L398.608 418.472Q402.584 418.472 405.804 420.432Q409.024 422.392 410.900 426.004Q412.776 429.616 412.776 434.376L412.776 434.376Q412.776 439.136 410.900 442.804Q409.024 446.472 405.804 448.488Q402.584 450.504 398.608 450.504L398.608 450.504Q395.192 450.504 392.588 449.104Q389.984 447.704 388.360 445.576L388.360 445.576L388.360 464.784L380.520 464.784L380.520 418.976L388.360 418.976L388.360 423.456ZM404.768 434.376Q404.768 431.576 403.620 429.532Q402.472 427.488 400.596 426.424Q398.720 425.360 396.536 425.360L396.536 425.360Q394.408 425.360 392.532 426.452Q390.656 427.544 389.508 429.616Q388.360 431.688 388.360 434.488L388.360 434.488Q388.360 437.288 389.508 439.360Q390.656 441.432 392.532 442.524Q394.408 443.616 396.536 443.616L396.536 443.616Q398.720 443.616 400.596 442.496Q402.472 441.376 403.620 439.304Q404.768 437.232 404.768 434.376L404.768 434.376ZM426.328 423.456Q427.840 421.328 430.500 419.900Q433.160 418.472 436.576 418.472L436.576 418.472Q440.552 418.472 443.772 420.432Q446.992 422.392 448.868 426.004Q450.744 429.616 450.744 434.376L450.744 434.376Q450.744 439.136 448.868 442.804Q446.992 446.472 443.772 448.488Q440.552 450.504 436.576 450.504L436.576 450.504Q433.160 450.504 430.556 449.104Q427.952 447.704 426.328 445.576L426.328 445.576L426.328 464.784L418.488 464.784L418.488 418.976L426.328 418.976L426.328 423.456ZM442.736 434.376Q442.736 431.576 441.588 429.532Q440.440 427.488 438.564 426.424Q436.688 425.360 434.504 425.360L434.504 425.360Q432.376 425.360 430.500 426.452Q428.624 427.544 427.476 429.616Q426.328 431.688 426.328 434.488L426.328 434.488Q426.328 437.288 427.476 439.360Q428.624 441.432 430.500 442.524Q432.376 443.616 434.504 443.616L434.504 443.616Q436.688 443.616 438.564 442.496Q440.440 441.376 441.588 439.304Q442.736 437.232 442.736 434.376L442.736 434.376ZM470.232 450.504Q465.752 450.504 462.168 448.516Q458.584 446.528 456.540 442.888Q454.496 439.248 454.496 434.488L454.496 434.488Q454.496 429.728 456.596 426.088Q458.696 422.448 462.336 420.460Q465.976 418.472 470.456 418.472L470.456 418.472Q474.936 418.472 478.576 420.460Q482.216 422.448 484.316 426.088Q486.416 429.728 486.416 434.488L486.416 434.488Q486.416 439.248 484.260 442.888Q482.104 446.528 478.436 448.516Q474.768 450.504 470.232 450.504L470.232 450.504ZM470.232 443.672Q472.360 443.672 474.236 442.636Q476.112 441.600 477.232 439.528Q478.352 437.456 478.352 434.488L478.352 434.488Q478.352 430.064 476.028 427.684Q473.704 425.304 470.344 425.304L470.344 425.304Q466.984 425.304 464.716 427.684Q462.448 430.064 462.448 434.488L462.448 434.488Q462.448 438.912 464.660 441.292Q466.872 443.672 470.232 443.672L470.232 443.672ZM500.024 423.792Q501.536 421.328 503.972 419.928Q506.408 418.528 509.544 418.528L509.544 418.528L509.544 426.760L507.472 426.760Q503.776 426.760 501.900 428.496Q500.024 430.232 500.024 434.544L500.024 434.544L500.024 450L492.184 450L492.184 418.976L500.024 418.976L500.024 423.792ZM530.880 425.416L523.936 425.416L523.936 440.424Q523.936 441.992 524.692 442.692Q525.448 443.392 527.240 443.392L527.240 443.392L530.880 443.392L530.880 450L525.952 450Q516.040 450 516.040 440.368L516.040 440.368L516.040 425.416L512.344 425.416L512.344 418.976L516.040 418.976L516.040 411.304L523.936 411.304L523.936 418.976L530.880 418.976L530.880 425.416Z"/>
</svg>
